<svg width="401" height="277" viewBox="0 0 401 277" fill="none" xmlns="http://www.w3.org/2000/svg">
<path fill-rule="evenodd" clip-rule="evenodd" d="M0 277C0 277 85.7871 240.021 141.447 238.908C197.107 237.795 225.992 267.834 274.914 260.216C323.836 252.597 400.687 209.427 400.687 209.427L401 0H0V277Z" fill="#EFF3FD"/>
<mask id="mask0_13_2290" style="mask-type:alpha" maskUnits="userSpaceOnUse" x="1" y="0" width="400" height="275">
<path fill-rule="evenodd" clip-rule="evenodd" d="M1 275C1 275 86.5732 238.288 142.094 237.183C197.615 236.078 226.428 265.9 275.229 258.337C324.029 250.774 400.688 207.915 400.688 207.915L401 0H1V275Z" fill="#E9F3FF"/>
</mask>
<g mask="url(#mask0_13_2290)">
<line y1="-0.5" x2="601.293" y2="-0.5" transform="matrix(0.573384 -0.819287 0.573384 0.819287 30.2558 383.728)" stroke="#BECDF8"/>
<line y1="-0.5" x2="601.293" y2="-0.5" transform="matrix(0.573384 -0.819287 0.573384 0.819287 -84.158 99.9589)" stroke="#BECDF8"/>
<line y1="-0.5" x2="601.293" y2="-0.5" transform="matrix(0.573384 -0.819287 0.573384 0.819287 38.674 405.598)" stroke="#BECDF8"/>
<line y1="-0.5" x2="601.293" y2="-0.5" transform="matrix(0.573384 -0.819287 0.573384 0.819287 -75.7395 121.828)" stroke="#BECDF8"/>
<line y1="-0.5" x2="601.293" y2="-0.5" transform="matrix(0.573384 -0.819287 0.573384 0.819287 47.0925 427.468)" stroke="#BECDF8"/>
<line y1="-0.5" x2="601.293" y2="-0.5" transform="matrix(0.573384 -0.819287 0.573384 0.819287 -67.3211 143.7)" stroke="#BECDF8"/>
<line y1="-0.5" x2="601.293" y2="-0.5" transform="matrix(0.573384 -0.819287 0.573384 0.819287 55.511 449.34)" stroke="#BECDF8"/>
<line y1="-0.5" x2="601.293" y2="-0.5" transform="matrix(0.573384 -0.819287 0.573384 0.819287 -58.9029 165.57)" stroke="#BECDF8"/>
<line y1="-0.5" x2="601.293" y2="-0.5" transform="matrix(0.573384 -0.819287 0.573384 0.819287 63.9292 471.209)" stroke="#BECDF8"/>
<line y1="-0.5" x2="601.293" y2="-0.5" transform="matrix(0.573384 -0.819287 0.573384 0.819287 -50.4844 187.44)" stroke="#BECDF8"/>
<line y1="-0.5" x2="601.293" y2="-0.5" transform="matrix(0.573384 -0.819287 0.573384 0.819287 72.3476 493.079)" stroke="#BECDF8"/>
<line y1="-0.5" x2="601.293" y2="-0.5" transform="matrix(0.573384 -0.819287 0.573384 0.819287 -42.0659 209.311)" stroke="#BECDF8"/>
<line y1="-0.5" x2="601.293" y2="-0.5" transform="matrix(0.573384 -0.819287 0.573384 0.819287 80.7661 514.95)" stroke="#BECDF8"/>
<line y1="-0.5" x2="601.293" y2="-0.5" transform="matrix(0.573384 -0.819287 0.573384 0.819287 -33.6475 231.182)" stroke="#BECDF8"/>
<line y1="-0.5" x2="601.293" y2="-0.5" transform="matrix(0.573384 -0.819287 0.573384 0.819287 89.1845 536.82)" stroke="#BECDF8"/>
<line y1="-0.5" x2="601.293" y2="-0.5" transform="matrix(0.573384 -0.819287 0.573384 0.819287 -25.2293 253.052)" stroke="#BECDF8"/>
<line y1="-0.5" x2="601.293" y2="-0.5" transform="matrix(0.573384 -0.819287 0.573384 0.819287 97.6027 558.69)" stroke="#BECDF8"/>
<line y1="-0.5" x2="601.293" y2="-0.5" transform="matrix(0.573384 -0.819287 0.573384 0.819287 -16.8108 274.922)" stroke="#BECDF8"/>
<line y1="-0.5" x2="601.293" y2="-0.5" transform="matrix(0.573384 -0.819287 0.573384 0.819287 106.021 580.561)" stroke="#BECDF8"/>
<line y1="-0.5" x2="601.293" y2="-0.5" transform="matrix(0.573384 -0.819287 0.573384 0.819287 -8.39232 296.793)" stroke="#BECDF8"/>
<line y1="-0.5" x2="601.293" y2="-0.5" transform="matrix(0.573384 -0.819287 0.573384 0.819287 114.44 602.433)" stroke="#BECDF8"/>
<line y1="-0.5" x2="601.293" y2="-0.5" transform="matrix(0.573384 -0.819287 0.573384 0.819287 122.858 624.302)" stroke="#BECDF8"/>
<line y1="-0.5" x2="601.293" y2="-0.5" transform="matrix(0.573384 -0.819287 0.573384 0.819287 0.408661 320.304)" stroke="#BECDF8"/>
<line y1="-0.5" x2="601.293" y2="-0.5" transform="matrix(0.573384 -0.819287 0.573384 0.819287 131.277 646.174)" stroke="#BECDF8"/>
<line y1="-0.5" x2="601.293" y2="-0.5" transform="matrix(0.573384 -0.819287 0.573384 0.819287 8.82686 342.174)" stroke="#BECDF8"/>
<line y1="-0.5" x2="601.293" y2="-0.5" transform="matrix(0.573384 -0.819287 0.573384 0.819287 139.695 668.045)" stroke="#BECDF8"/>
<line y1="-0.5" x2="601.293" y2="-0.5" transform="matrix(0.573384 -0.819287 0.573384 0.819287 17.2453 364.045)" stroke="#BECDF8"/>
</g>
</svg>
