<svg width="211" height="53" viewBox="0 0 211 53" fill="none" xmlns="http://www.w3.org/2000/svg">
<path d="M24.328 10.3662V3.74121H3.22803V49.2589H24.328V42.6339C20.0057 42.6339 15.8603 40.934 12.804 37.9083C9.74767 34.8826 8.03064 30.779 8.03064 26.5C8.03064 22.2211 9.74767 18.1173 12.804 15.0917C15.8603 12.066 20.0057 10.3662 24.328 10.3662Z" fill="#3563E9"/>
<path d="M24.328 10.3662V42.6339C28.6504 42.6339 32.7957 40.934 35.8521 37.9083C38.9084 34.8826 40.6254 30.779 40.6254 26.5C40.6254 22.2211 38.9084 18.1173 35.8521 15.0917C32.7957 12.066 28.6504 10.3662 24.328 10.3662Z" fill="#3563E9"/>
<path d="M52.4666 14.4189H57.1904V36.9439H52.4666V14.4189Z" fill="#3563E9"/>
<path d="M59.8358 29.2281C59.8358 27.6075 60.3219 26.0235 61.2324 24.6766C62.1428 23.3298 63.4367 22.2809 64.9501 21.6628C66.4634 21.0449 68.128 20.8856 69.7328 21.2051C71.3377 21.5247 72.8106 22.3088 73.9648 23.4579C75.119 24.6073 75.9027 26.0698 76.2164 27.6604C76.5299 29.251 76.3595 30.8979 75.7265 32.3925C75.0935 33.8869 74.0267 35.1619 72.661 36.0554C71.2953 36.9491 69.6924 37.4211 68.0554 37.4119C66.9697 37.4203 65.8931 37.2141 64.889 36.8051C63.8848 36.3962 62.9731 35.7929 62.2075 35.0308C61.4419 34.2685 60.8379 33.3625 60.4306 32.3661C60.0234 31.3697 59.8212 30.3029 59.8358 29.2281ZM71.677 29.2281C71.6584 28.5294 71.4322 27.8516 71.0265 27.2797C70.6209 26.7076 70.0541 26.2666 69.3965 26.0119C68.7391 25.7572 68.0204 25.7 67.3304 25.8476C66.6403 25.9951 66.0095 26.3407 65.5168 26.8414C65.0241 27.3419 64.6913 27.9751 64.5603 28.6619C64.4293 29.3487 64.5057 30.0585 64.78 30.7024C65.0543 31.3464 65.5142 31.8962 66.1025 32.2826C66.6907 32.6692 67.3808 32.8754 68.0869 32.8757C68.5676 32.8851 69.045 32.7961 69.4894 32.6143C69.9338 32.4327 70.3354 32.1623 70.6694 31.8199C71.0034 31.4776 71.2624 31.0706 71.4304 30.6248C71.5984 30.1788 71.6717 29.7034 71.6455 29.2281H71.677Z" fill="#3563E9"/>
<path d="M94.9657 21.5117V36.1802C94.9657 41.3555 90.8717 43.5534 86.7304 43.5534C85.2696 43.6721 83.8044 43.3848 82.4998 42.7238C81.1951 42.0629 80.1026 41.0545 79.3454 39.8123L83.3292 37.5364C83.652 38.1808 84.1655 38.7124 84.8013 39.0604C85.4372 39.4085 86.1649 39.5566 86.8879 39.4849C87.3484 39.541 87.8158 39.4958 88.2565 39.3524C88.6974 39.2088 89.1007 38.9708 89.4377 38.655C89.7748 38.3392 90.0371 37.9537 90.2061 37.5258C90.375 37.098 90.4464 36.6385 90.415 36.1802V34.7617C89.8653 35.4215 89.1678 35.9453 88.3779 36.2917C87.5879 36.638 86.7274 36.7973 85.8643 36.757C83.7762 36.757 81.7738 35.9358 80.2973 34.4741C78.8207 33.0125 77.9912 31.03 77.9912 28.9629C77.9912 26.8957 78.8207 24.9133 80.2973 23.4516C81.7738 21.9899 83.7762 21.1687 85.8643 21.1687C86.7274 21.1284 87.5879 21.2877 88.3779 21.634C89.1678 21.9804 89.8653 22.5042 90.415 23.164V21.6052L94.9657 21.5117ZM90.415 28.9161C90.4464 28.1703 90.2517 27.4322 89.856 26.7969C89.4603 26.1615 88.8818 25.6578 88.1945 25.3506C87.5073 25.0433 86.7431 24.9467 85.9999 25.073C85.2569 25.1992 84.5687 25.5426 84.0244 26.0591C83.48 26.5755 83.1042 27.2414 82.9452 27.9711C82.7861 28.7008 82.8511 29.4607 83.1319 30.1535C83.4128 30.8462 83.8965 31.44 84.5209 31.8584C85.1454 32.2768 85.882 32.5008 86.6359 32.5014C87.128 32.5365 87.6219 32.469 88.0858 32.3034C88.5499 32.1377 88.9738 31.8775 89.3298 31.5396C89.686 31.2018 89.9666 30.7937 90.1535 30.3418C90.3404 29.8899 90.4295 29.4042 90.415 28.9161Z" fill="#3563E9"/>
<path d="M97.6269 29.2278C97.6269 27.6085 98.1122 26.0257 99.0212 24.6795C99.9303 23.3333 101.222 22.2843 102.734 21.6655C104.245 21.0465 105.908 20.8853 107.512 21.2024C109.116 21.5194 110.589 22.3004 111.745 23.4464C112.9 24.5926 113.686 26.0523 114.003 27.6408C114.321 29.2294 114.155 30.8753 113.527 32.3704C112.899 33.8656 111.836 35.1426 110.475 36.04C109.113 36.9374 107.514 37.4147 105.878 37.4116C104.79 37.4221 103.711 37.2174 102.704 36.8096C101.697 36.4018 100.783 35.7992 100.014 35.0369C99.2459 34.2746 98.6389 33.3682 98.2289 32.3707C97.819 31.3732 97.6143 30.3046 97.6269 29.2278ZM109.468 29.2278C109.449 28.5285 109.223 27.8501 108.817 27.2777C108.41 26.7055 107.842 26.2645 107.184 26.0102C106.526 25.756 105.806 25.6997 105.116 25.8486C104.425 25.9973 103.794 26.3446 103.302 26.8467C102.81 27.3488 102.479 27.9835 102.35 28.6713C102.22 29.359 102.299 30.0693 102.576 30.7129C102.852 31.3567 103.315 31.9052 103.905 32.2899C104.495 32.6745 105.187 32.8783 105.894 32.8754C106.374 32.8848 106.852 32.7958 107.296 32.614C107.741 32.4324 108.142 32.162 108.476 31.8197C108.81 31.4773 109.069 31.0703 109.237 30.6245C109.405 30.1785 109.478 29.7031 109.452 29.2278H109.468Z" fill="#3563E9"/>
<path d="M116.318 17.3807C116.318 16.832 116.482 16.2954 116.79 15.8391C117.098 15.3828 117.536 15.0272 118.048 14.8172C118.56 14.6072 119.124 14.5522 119.667 14.6593C120.211 14.7663 120.71 15.0306 121.102 15.4187C121.494 15.8067 121.761 16.3012 121.869 16.8393C121.978 17.3775 121.922 17.9355 121.71 18.4425C121.498 18.9495 121.139 19.3828 120.678 19.6877C120.217 19.9926 119.675 20.1554 119.12 20.1554C118.38 20.1473 117.671 19.8523 117.148 19.3337C116.624 18.8151 116.326 18.1141 116.318 17.3807ZM116.774 21.5115H121.498V36.9439H116.774V21.5115Z" fill="#3563E9"/>
<path d="M141.716 29.2279C141.769 30.2543 141.617 31.2809 141.267 32.2486C140.918 33.2163 140.379 34.1061 139.681 34.8667C138.983 35.6274 138.139 36.2437 137.2 36.6805C136.26 37.1173 135.243 37.3658 134.205 37.4117C133.325 37.4697 132.443 37.3302 131.626 37.0036C130.808 36.6769 130.075 36.1717 129.482 35.5256V43.1482H124.758V21.5117H129.482V22.9615C130.076 22.3172 130.809 21.8143 131.627 21.4904C132.445 21.1663 133.326 21.0298 134.205 21.0909C135.238 21.1369 136.252 21.3839 137.188 21.8177C138.125 22.2516 138.966 22.8639 139.663 23.6194C140.361 24.375 140.901 25.2592 141.253 26.2216C141.606 27.1838 141.763 28.2053 141.716 29.2279ZM136.993 29.2279C136.974 28.5039 136.74 27.8014 136.32 27.2086C135.9 26.6158 135.312 26.1588 134.631 25.8952C133.949 25.6314 133.204 25.5728 132.489 25.7263C131.775 25.8799 131.121 26.239 130.612 26.7586C130.102 27.2781 129.759 27.935 129.625 28.6471C129.49 29.359 129.571 30.0943 129.858 30.7609C130.144 31.4273 130.623 31.9953 131.233 32.3937C131.844 32.7922 132.561 33.0031 133.292 33.0003C133.793 33.0213 134.293 32.9373 134.759 32.7537C135.225 32.57 135.647 32.291 135.996 31.9348C136.346 31.5786 136.615 31.1532 136.787 30.6868C136.958 30.2203 137.028 29.7232 136.993 29.2279Z" fill="#3563E9"/>
<path d="M156.093 32.3143C156.093 35.8684 152.943 37.3805 149.605 37.3805C148.244 37.5018 146.877 37.216 145.681 36.5602C144.485 35.9044 143.516 34.9087 142.897 33.7017L146.96 31.4258C147.121 31.982 147.47 32.4666 147.948 32.7986C148.427 33.1307 149.006 33.2898 149.59 33.2496C150.707 33.2496 151.274 32.9067 151.274 32.2831C151.274 30.584 143.606 31.4881 143.606 26.1414C143.606 22.7743 146.472 21.0908 149.715 21.0908C150.948 21.0361 152.173 21.3131 153.26 21.8922C154.347 22.4713 155.255 23.331 155.888 24.3799L151.825 26.4999C151.646 26.0977 151.353 25.7557 150.981 25.515C150.609 25.2743 150.175 25.1454 149.731 25.1437C148.912 25.1437 148.424 25.4555 148.424 26.0011C148.424 27.7781 156.093 26.609 156.093 32.3143Z" fill="#3563E9"/>
<path d="M173.209 21.5117V36.9441H168.485V35.4944C167.948 36.1361 167.266 36.6438 166.496 36.977C165.725 37.3101 164.885 37.459 164.045 37.4117C160.895 37.4117 158.203 35.1826 158.203 31.0205V21.5117H162.927V30.3191C162.889 30.6873 162.933 31.059 163.056 31.4088C163.179 31.7585 163.375 32.0777 163.634 32.3446C163.893 32.6113 164.208 32.8193 164.556 32.9541C164.904 33.0888 165.278 33.1471 165.651 33.125C167.351 33.125 168.548 32.1273 168.548 30.0073V21.5117H173.209Z" fill="#3563E9"/>
<path d="M199.978 27.4667V36.9443H195.254V27.8719C195.254 26.3131 194.514 25.3467 193.018 25.3467C191.522 25.3467 190.577 26.4222 190.577 28.2461V36.9443H185.853V27.8719C185.853 26.3131 185.113 25.3467 183.617 25.3467C182.121 25.3467 181.177 26.4222 181.177 28.2461V36.9443H176.453V21.5119H181.177V22.9305C181.666 22.3038 182.304 21.8075 183.036 21.4864C183.767 21.1653 184.568 21.0293 185.365 21.0911C186.163 21.0498 186.96 21.215 187.675 21.5702C188.39 21.9255 188.999 22.4588 189.443 23.1175C189.963 22.4292 190.649 21.8823 191.44 21.528C192.229 21.1735 193.098 21.0233 193.962 21.0911C197.647 21.0911 199.978 23.6164 199.978 27.4667Z" fill="#3563E9"/>
<path d="M203.946 21.4184C205.859 21.4184 207.41 19.883 207.41 17.989C207.41 16.095 205.859 14.5596 203.946 14.5596C202.032 14.5596 200.481 16.095 200.481 17.989C200.481 19.883 202.032 21.4184 203.946 21.4184Z" fill="#3563E9"/>
</svg>
