<svg width="42" height="42" viewBox="0 0 42 42" fill="none" xmlns="http://www.w3.org/2000/svg">
<g id="Icon/Feather Icon">
<path id="Vector" d="M28 28L21 21L14 28" stroke="#2851E3" stroke-width="2" stroke-linecap="round" stroke-linejoin="round"/>
<path id="Vector_2" d="M21 21V36.75" stroke="#2851E3" stroke-width="2" stroke-linecap="round" stroke-linejoin="round"/>
<path id="Vector_3" d="M35.6825 32.1826C37.3894 31.2521 38.7378 29.7796 39.5148 27.9977C40.2919 26.2157 40.4534 24.2258 39.9739 22.3418C39.4944 20.4579 38.4012 18.7872 36.8667 17.5936C35.3323 16.4 33.4441 15.7514 31.5 15.7501H29.2951C28.7654 13.7013 27.7781 11.7992 26.4075 10.1868C25.0368 8.57448 23.3185 7.29383 21.3817 6.44116C19.4449 5.58848 17.34 5.18597 15.2253 5.26389C13.1105 5.3418 11.0409 5.89812 9.17211 6.89101C7.3033 7.8839 5.6839 9.28752 4.43564 10.9964C3.18738 12.7052 2.34276 14.6748 1.96527 16.757C1.58777 18.8393 1.68724 20.98 2.25618 23.0183C2.82511 25.0566 3.84873 26.9394 5.25005 28.5251" stroke="#2851E3" stroke-width="2" stroke-linecap="round" stroke-linejoin="round"/>
<path id="Vector_4" d="M28 28L21 21L14 28" stroke="#2851E3" stroke-width="2" stroke-linecap="round" stroke-linejoin="round"/>
</g>
</svg>
