<?xml version="1.0" encoding="UTF-8" standalone="no"?>
<!DOCTYPE svg PUBLIC "-//W3C//DTD SVG 1.1//EN" "http://www.w3.org/Graphics/SVG/1.1/DTD/svg11.dtd">
<svg width="100%" height="100%" viewBox="0 0 500 500" version="1.1" xmlns="http://www.w3.org/2000/svg" xmlns:xlink="http://www.w3.org/1999/xlink" xml:space="preserve" xmlns:serif="http://www.serif.com/" style="fill-rule:evenodd;clip-rule:evenodd;stroke-linejoin:round;stroke-miterlimit:2;">
    <g transform="matrix(1.24636,0,0,1.19969,59.7552,55.4951)">
        <path d="M245.34,228.27L233.24,235.26L219.17,237.45L205.29,241.15L190.77,238.12L176.84,242.52L162.6,241.91L148.42,243.37L134.2,244.03L119.99,243.82L105.87,240.35L91.71,239.98L77.36,241.89L63.49,237.58L49.18,237.83L35.7,233.09L22.12,228.27L35.7,223.45L49.09,218.09L63.3,217.1L77.62,218.21L91.7,216.7L105.78,213.59L120.02,215.46L134.2,213.74L148.36,216.43L162.64,213.01L176.84,213.92L191.07,214.37L204.94,218.72L219.05,219.93L232.91,222.64L245.34,228.27Z" style="fill:rgb(199,214,232);fill-rule:nonzero;"/>
    </g>
    <g transform="matrix(1.24636,0,0,1.19969,59.7552,55.4951)">
        <path d="M48.56,232.74L63.64,232.73L77.64,232.58L91.63,231.92L105.63,233.43L119.63,231.35L133.62,230.28L147.62,233.08L161.62,232.03L175.61,231.53L189.61,231.81L203.61,232.02L217.61,232.21L231.55,231.59L231.4,217.66L232.45,203.67L233.16,189.67L230.66,175.68L230.94,161.68L231.38,147.69L231.57,133.69L230.8,119.69L230.92,105.69L232.91,91.69L233.17,77.7L232.55,63.69L232.4,48.91L217.62,50.88L203.63,49.11L189.63,48.9L175.64,51.51L161.64,49.85L147.65,51.33L133.65,48.21L119.65,47.94L105.65,50.14L91.65,49.63L77.66,50.9L63.65,50.8L49.89,49.93L50.03,63.68L49.25,77.68L48.29,91.67L49.3,105.67L48.76,119.67L49.74,133.66L50.48,147.66L49.69,161.66L48.47,175.65L51.34,189.65L50.37,203.65L50.34,217.68L48.56,232.74Z" style="fill:rgb(91,192,190);fill-rule:nonzero;"/>
    </g>
    <g transform="matrix(1.24636,0,0,1.19969,59.7552,55.4951)">
        <path d="M138.04,259.02L125.78,264.26L111.14,267.61L96.11,267.48L81.16,268.63L66.22,266.98L51.14,267.91L36.25,265.68L22.26,259.02L36.52,253.72L51.27,251.38L66.19,250.41L81.16,249.22L96.09,250.99L111.18,250.02L125.7,254.23L138.04,259.02Z" style="fill:rgb(199,214,232);fill-rule:nonzero;"/>
    </g>
    <g transform="matrix(1.24636,0,0,1.19969,59.7552,55.4951)">
        <path d="M283.16,267.23L270.31,272.42L256.26,273.88L242.25,276.1L228.05,273.96L213.97,276.32L199.86,275.4L185.73,275.55L171.59,274.88L157.51,273.08L145.77,267.23L157.82,263.16L171.6,259.7L185.81,260.6L199.85,258.8L213.97,259.97L228.1,258.46L242.12,260.69L256.32,259.96L270.3,262.18L283.16,267.23Z" style="fill:rgb(199,214,232);fill-rule:nonzero;"/>
    </g>
    <g transform="matrix(1.24636,0,0,1.19969,59.7552,55.4951)">
        <path d="M33.99,259.79L49.66,259.78L64.44,259.66L79.22,259.12L93.99,260.35L108.78,258.65L122.76,258.11L124.72,244.02L123.87,229.13L123.46,214.25L123.69,199.36L123.86,184.47L124.01,169.59L123.49,154.7L123.38,139.81L124.25,124.92L124.46,109.13L108.78,110.81L94.01,110.58L79.23,110.22L64.46,110.06L49.67,110.69L35.29,110.42L33.83,124.91L33.62,139.79L34.12,154.68L33.98,169.57L35.86,184.45L34.41,199.34L34.24,214.23L36.37,229.11L35.01,244.01L33.99,259.79Z" style="fill:rgb(126,153,187);fill-rule:nonzero;"/>
    </g>
    <g transform="matrix(1.24636,0,0,1.19969,59.7552,55.4951)">
        <path d="M154.63,198.75L154.62,213.23L154.72,227L155.14,240.76L154.17,254.53L155.45,268.16L169.93,267.42L184.54,269.22L199.16,268.54L213.77,268.23L228.39,268.41L243.01,268.54L257.63,268.66L272.21,268.26L272.11,254.54L272.79,240.77L273.25,227.01L271.64,213.24L271.96,199.78L257.64,199.62L243.02,199.5L228.41,199.99L213.79,199.91L199.17,198.64L184.56,198.47L169.95,198.86L154.63,198.75Z" style="fill:rgb(58,80,107);fill-rule:nonzero;"/>
    </g>
</svg>
